<svg width="29" height="17" viewBox="0 0 29 17" fill="none" xmlns="http://www.w3.org/2000/svg">
<path d="M1.88338 0.663981C1.6699 0.108097 1.09305 -0.149419 0.594957 0.0888236C0.0968597 0.327066 -0.133886 0.970833 0.07959 1.52672L1.88338 0.663981ZM10.1938 10.933C10.4894 10.4262 10.3608 9.74782 9.90654 9.41799C9.45231 9.08816 8.8445 9.23168 8.54894 9.73862L10.1938 10.933ZM6.70055 12.9089C6.40499 13.4157 6.53362 14.0941 6.98785 14.4239C7.44209 14.7537 8.0499 14.6102 8.34546 14.1033L6.70055 12.9089ZM28.0495 1.52672C28.2629 0.970833 28.0322 0.327066 27.534 0.0888236C27.036 -0.149419 26.4591 0.108097 26.2456 0.663981L28.0495 1.52672ZM24.4913 10.0883C24.8745 10.516 25.4957 10.516 25.8789 10.0883C26.2621 9.66066 26.2621 8.96726 25.8789 8.5396L24.4913 10.0883ZM13.0833 14.9662C13.0833 15.5709 13.5226 16.0612 14.0645 16.0612C14.6064 16.0612 15.0458 15.5709 15.0458 14.9662H13.0833ZM19.7836 14.1033C20.0792 14.6102 20.687 14.7537 21.1411 14.4239C21.5954 14.0941 21.724 13.4157 21.4284 12.9089L19.7836 14.1033ZM5.60023 7.89818C5.98342 7.47053 5.98342 6.77713 5.60023 6.34947C5.21704 5.92181 4.59575 5.92181 4.21256 6.34947L5.60023 7.89818ZM2.25011 8.5396C1.86692 8.96726 1.86692 9.66066 2.25011 10.0883C2.6333 10.516 3.25458 10.516 3.63777 10.0883L2.25011 8.5396ZM14.0645 10.2209C9.8467 10.2209 6.81826 7.87687 4.80775 5.46051C3.80278 4.25268 3.06594 3.04141 2.581 2.13222C2.3391 1.67865 2.1614 1.30315 2.04566 1.04479C1.98782 0.9157 1.94556 0.816108 1.91858 0.750929C1.90511 0.718355 1.89545 0.69441 1.88959 0.679707C1.88666 0.672362 1.88441 0.666624 1.88338 0.663981C1.88335 0.663923 1.88341 0.664098 1.88338 0.663981C1.88351 0.664317 1.88338 0.663981 0.981483 1.09535C0.07959 1.52672 0.0793938 1.52622 0.07959 1.52672C0.0796685 1.52694 0.0802442 1.52841 0.0804143 1.52885C0.0807413 1.52971 0.081147 1.53075 0.0816049 1.53191C0.0825076 1.53428 0.0836719 1.53726 0.0850718 1.54085C0.0878846 1.54802 0.0916787 1.55764 0.096454 1.56963C0.106005 1.5936 0.119506 1.62704 0.137011 1.66932C0.171996 1.75388 0.223006 1.87387 0.290384 2.02424C0.425048 2.32483 0.625545 2.7478 0.89469 3.25242C1.43187 4.25959 2.24864 5.60351 3.36966 6.95073C5.61114 9.64474 9.12422 12.411 14.0645 12.411V10.2209ZM18.3983 9.31681C17.1287 9.87456 15.689 10.2209 14.0645 10.2209V12.411C15.9461 12.411 17.6291 12.0083 19.1171 11.3548L18.3983 9.31681ZM8.54894 9.73862L6.70055 12.9089L8.34546 14.1033L10.1938 10.933L8.54894 9.73862ZM27.1476 1.09535C26.2456 0.663981 26.2455 0.664185 26.2456 0.663981C26.2458 0.663747 26.2463 0.662419 26.2463 0.662579C26.2461 0.662871 26.2458 0.663923 26.245 0.665733C26.2435 0.66934 26.2409 0.67594 26.2371 0.685416C26.2295 0.704382 26.2172 0.734839 26.2001 0.775955C26.1657 0.858187 26.1122 0.98285 26.0389 1.14305C25.8924 1.46369 25.6679 1.92513 25.3623 2.4725C24.7493 3.57043 23.8196 4.99666 22.5511 6.32538L23.8942 7.92228C25.3189 6.42978 26.3517 4.84174 27.0279 3.63073C27.3668 3.02366 27.6186 2.50696 27.7872 2.13807C27.8715 1.95352 27.9352 1.80558 27.9787 1.70139C28.0004 1.64929 28.0172 1.6081 28.029 1.5787C28.0349 1.56399 28.0396 1.55224 28.043 1.54354C28.0447 1.53919 28.046 1.53561 28.0472 1.53279C28.0477 1.53139 28.0481 1.53018 28.0485 1.52917C28.0487 1.52866 28.0494 1.52713 28.0495 1.52672C28.0495 1.52682 28.0496 1.52651 28.0495 1.52672C28.0496 1.52647 28.0495 1.52672 27.1476 1.09535ZM22.5511 6.32538C21.4273 7.5025 20.0486 8.59187 18.3983 9.31681L19.1171 11.3548C21.045 10.5079 22.6295 9.24701 23.8942 7.92228L22.5511 6.32538ZM22.5289 7.89818L24.4913 10.0883L25.8789 8.5396L23.9164 6.34947L22.5289 7.89818ZM13.0833 11.316V14.9662H15.0458V11.316H13.0833ZM17.9353 10.933L19.7836 14.1033L21.4284 12.9089L19.5801 9.73862L17.9353 10.933ZM4.21256 6.34947L2.25011 8.5396L3.63777 10.0883L5.60023 7.89818L4.21256 6.34947Z" fill="black"/>
</svg>
