<svg width="37" height="35" viewBox="0 0 37 35" fill="none" xmlns="http://www.w3.org/2000/svg">
<g clip-path="url(#clip0_17_1350)">
<path fill-rule="evenodd" clip-rule="evenodd" d="M10.8589 0.214776C7.84728 0.343314 5.237 1.03981 3.12926 3.0252C1.01416 5.02102 0.287012 7.49998 0.150791 10.3191C0.0661123 12.0787 -0.429041 25.372 1.0068 28.8582C1.97507 31.2101 3.88211 33.0184 6.39115 33.9373C7.56191 34.3681 8.89839 34.6597 10.8589 34.7448C27.2514 35.4466 33.3279 35.0645 35.8903 28.8582C36.345 27.7535 36.6579 26.4903 36.7445 24.6404C37.4937 9.09424 36.623 5.72451 33.766 3.0252C31.5 0.886946 28.8345 -0.568611 10.8589 0.214776ZM11.0098 31.6182C9.21497 31.5418 8.24119 31.2589 7.59138 31.0209C5.95673 30.4199 4.72891 29.2633 4.09751 27.726C3.00406 25.0771 3.36672 12.4959 3.46428 10.4601C3.56001 8.46605 3.98707 6.64359 5.47445 5.23663C7.31527 3.49961 9.69359 2.64832 25.8873 3.33965C28.0006 3.42997 29.9316 3.83313 31.4227 5.23663C33.2635 6.97362 34.1765 9.2407 33.4328 24.5003C33.3518 26.1939 33.0518 27.1128 32.7996 27.726C31.1337 31.7645 27.301 32.3252 11.0098 31.6182ZM26.0659 8.20684C26.0659 9.35675 27.0544 10.2918 28.2749 10.2918C29.4953 10.2918 30.4857 9.35675 30.4857 8.20684C30.4857 7.05695 29.4953 6.12274 28.2749 6.12274C27.0544 6.12274 26.0659 7.05695 26.0659 8.20684ZM8.99593 17.4789C8.99593 22.4051 13.228 26.399 18.4486 26.399C23.6691 26.399 27.9012 22.4051 27.9012 17.4789C27.9012 12.5528 23.6691 8.56146 18.4486 8.56146C13.228 8.56146 8.99593 12.5528 8.99593 17.4789ZM12.3131 17.4789C12.3131 14.2829 15.0596 11.6898 18.4486 11.6898C21.8375 11.6898 24.584 14.2829 24.584 17.4789C24.584 20.6768 21.8375 23.2707 18.4486 23.2707C15.0596 23.2707 12.3131 20.6768 12.3131 17.4789Z" fill="black"/>
</g>
<defs>
<clipPath id="clip0_17_1350">
<rect width="37" height="35" fill="white"/>
</clipPath>
</defs>
</svg>
