<svg width="29" height="26" viewBox="0 0 29 26" fill="none" xmlns="http://www.w3.org/2000/svg">
<path d="M10.1581 1.67109C11.3507 1.24775 12.6575 1 14.083 1C19.5542 1 23.2778 4.64957 25.4981 7.86873C26.6101 9.48096 27.1661 10.287 27.1661 12.6807C27.1661 15.0744 26.6101 15.8805 25.4981 17.4927C23.2778 20.7118 19.5542 24.3614 14.083 24.3614C8.61186 24.3614 4.88823 20.7118 2.66794 17.4927C1.55598 15.8805 1 15.0744 1 12.6807C1 10.287 1.55598 9.48096 2.66794 7.86873C3.29754 6.9559 4.048 6.00846 4.92491 5.11945" stroke="black" stroke-width="2" stroke-linecap="round"/>
<path d="M18.008 12.6808C18.008 15.1 16.2508 17.0611 14.0831 17.0611C11.9154 17.0611 10.1582 15.1 10.1582 12.6808C10.1582 10.2616 11.9154 8.30054 14.0831 8.30054C16.2508 8.30054 18.008 10.2616 18.008 12.6808Z" stroke="black" stroke-width="2"/>
</svg>
