<svg width="37" height="40" viewBox="0 0 37 40" fill="none" xmlns="http://www.w3.org/2000/svg">
<path d="M4.625 9.16667C4.625 23.434 15.3235 35 28.5208 35C29.1162 35 29.7065 34.9765 30.2911 34.9302C30.9619 34.877 31.2972 34.8505 31.6026 34.6605C31.8555 34.5032 32.0952 34.2242 32.2219 33.94C32.375 33.597 32.375 33.1968 32.375 32.3967V27.7012C32.375 27.0282 32.375 26.6917 32.2725 26.4033C32.1821 26.1485 32.0351 25.9217 31.8445 25.7427C31.6288 25.54 31.3362 25.425 30.7513 25.195L25.8075 23.2515C25.1269 22.984 24.7865 22.8502 24.4636 22.8728C24.1789 22.8928 23.9049 22.998 23.6721 23.1763C23.4082 23.3785 23.222 23.7142 22.8494 24.3857L21.5833 26.6667C17.4981 24.6665 14.1863 21.0815 12.3333 16.6667L14.4433 15.298C15.0643 14.8952 15.3748 14.6938 15.5619 14.4084C15.7268 14.1568 15.8241 13.8606 15.8426 13.5528C15.8636 13.2038 15.7398 12.8359 15.4924 12.1001L13.6946 6.75535C13.4819 6.12293 13.3755 5.80672 13.1881 5.5735C13.0225 5.36748 12.8126 5.20858 12.5769 5.11075C12.3101 5 11.9989 5 11.3765 5H7.0331C6.2929 5 5.92279 5 5.60547 5.16542C5.34265 5.30243 5.08463 5.56168 4.93904 5.83505C4.76326 6.16512 4.7387 6.5277 4.68958 7.25288C4.64678 7.88477 4.625 8.52297 4.625 9.16667Z" stroke="black" stroke-width="3" stroke-linecap="round" stroke-linejoin="round"/>
</svg>
