<svg width="41" height="40" viewBox="0 0 41 40" fill="none" xmlns="http://www.w3.org/2000/svg">
<path fill-rule="evenodd" clip-rule="evenodd" d="M20.5061 23.3392C24.7518 23.3392 28.1936 19.9812 28.1936 15.8391C28.1936 11.697 24.7518 8.33911 20.5061 8.33911C16.2604 8.33911 12.8186 11.697 12.8186 15.8391C12.8186 19.9812 16.2604 23.3392 20.5061 23.3392ZM20.5061 20.0118C18.144 20.0118 16.2291 18.1437 16.2291 15.8391C16.2291 13.5346 18.144 11.6665 20.5061 11.6665C22.8682 11.6665 24.7831 13.5346 24.7831 15.8391C24.7831 18.1437 22.8682 20.0118 20.5061 20.0118Z" fill="black"/>
<path fill-rule="evenodd" clip-rule="evenodd" d="M36.3396 19.303C38.5484 9.64695 30.7589 0.00592041 20.5 0.00592041C10.244 0.00592041 2.45382 9.66019 4.66059 19.3042C6.36392 27.1369 13.2519 34.7442 17.3628 38.7115C19.1234 40.4105 21.8766 40.4105 23.6372 38.7115C27.7483 34.744 34.6368 27.136 36.3396 19.303ZM20.5 3.33925C28.5503 3.33925 34.742 10.983 33.005 18.577C32.1706 22.2259 30.2988 25.5025 28.1022 28.5317C25.8068 31.6974 23.2041 34.4407 21.2344 36.3417C20.8051 36.756 20.1949 36.756 19.7656 36.3417C17.7959 34.4409 15.1935 31.6977 12.8981 28.5322C10.7013 25.5029 8.83012 22.2269 7.99517 18.5779C6.25997 10.9947 12.4539 3.33925 20.5 3.33925Z" fill="black"/>
</svg>
